<svg width="23" height="24" viewBox="0 0 23 24" fill="none" xmlns="http://www.w3.org/2000/svg">
<path fill-rule="evenodd" clip-rule="evenodd" d="M12.6948 14.8215L10.5777 9.17869H9.59931L7.48221 14.8215H8.54498L8.8908 13.8542H11.2862L11.6321 14.8215H12.6948ZM10.0801 10.5733H10.097L10.9657 12.9675H9.21132L10.0801 10.5733Z" fill="white"/>
<path d="M14.5358 14.8215V9.17869H13.4814V14.8215H14.5358Z" fill="white"/>
<path fill-rule="evenodd" clip-rule="evenodd" d="M15.9465 21.8751V20.4644H12.4197V21.8751H11.009V20.4644H7.48221L7.48221 21.8751H6.07149L6.07149 20.4644H5.36614C4.19746 20.4644 3.25007 19.517 3.25007 18.3483V17.643H1.83936V16.2323H3.25007V12.7055H1.83936V11.2948H3.25007V7.76798H1.83936V6.35726H3.25007V5.65191C3.25007 4.48323 4.19747 3.53584 5.36614 3.53584H6.07149V2.12512H7.4822V3.53584H11.009V2.12512H12.4197V3.53584H15.9465V2.12512H17.3572V3.53584H18.0626C19.2312 3.53584 20.1786 4.48323 20.1786 5.65191V6.35726H21.5893V7.76798H20.1786V11.2948H21.5893V12.7055H20.1786V16.2323H21.5893V17.643H20.1786V18.3483C20.1786 19.517 19.2312 20.4644 18.0626 20.4644H17.3572V21.8751H15.9465ZM5.36614 4.94655C4.97658 4.94655 4.66078 5.26235 4.66078 5.65191V18.3483C4.66078 18.7379 4.97658 19.0537 5.36614 19.0537H18.0626C18.4521 19.0537 18.7679 18.7379 18.7679 18.3483V5.65191C18.7679 5.26235 18.4521 4.94655 18.0626 4.94655H5.36614Z" fill="white"/>
</svg>
