<svg width="23" height="23" viewBox="0 0 23 23" fill="none" xmlns="http://www.w3.org/2000/svg">
<path d="M12.8571 14.2856C12.8571 15.0746 12.2175 15.7142 11.4286 15.7142C10.6396 15.7142 9.99999 15.0746 9.99999 14.2856C9.99999 13.4966 10.6396 12.857 11.4286 12.857C12.2175 12.857 12.8571 13.4966 12.8571 14.2856Z" fill="white"/>
<path fill-rule="evenodd" clip-rule="evenodd" d="M5.00001 4.28564C3.02757 4.28564 1.42859 5.88462 1.42859 7.85706V14.9999C1.42859 16.9723 3.02757 18.5713 5.00001 18.5713H17.8571C19.8295 18.5713 21.4285 16.9723 21.4285 14.9999V7.85706C21.4285 5.88462 19.8295 4.28564 17.8571 4.28564H5.00001ZM15.7143 17.1427H17.8571C19.0406 17.1427 20 16.1834 20 14.9999V7.85706C20 6.6736 19.0406 5.71421 17.8571 5.71421L12.1428 5.71421V9.99991H13.5714C14.7549 9.99991 15.7143 10.9593 15.7143 12.1428V17.1427ZM10.7143 9.99991V5.71421H5.00001C3.81654 5.71421 2.85716 6.6736 2.85716 7.85706V14.9999C2.85716 16.1834 3.81654 17.1427 5.00001 17.1427H7.14286V12.1428C7.14286 10.9593 8.10224 9.99991 9.28571 9.99991H10.7143ZM14.2857 17.1427V12.1428C14.2857 11.7483 13.9659 11.4285 13.5714 11.4285H9.28571C8.89122 11.4285 8.57142 11.7483 8.57142 12.1428V17.1427H14.2857Z" fill="white"/>
</svg>
