<svg width="25" height="22" viewBox="0 0 25 22" fill="none" xmlns="http://www.w3.org/2000/svg">
<path d="M18.7249 11.7023V11.7023C18.7249 12.478 19.3537 13.1069 20.1294 13.1069V13.1069C20.9051 13.1069 21.5339 12.478 21.5339 11.7023V3.27527H19.4271L13.458 7.13768M13.458 7.13768L15.9159 9.59558V13.1069H10.7192H4.67975L4.67975 6.0843C4.67975 5.3086 5.30857 4.67978 6.08426 4.67978H11.0001L13.458 7.13768Z" stroke="white" stroke-width="1.40451"/>
<path d="M17.3003 18.7248H4.68179C3.90499 18.7248 3.27527 18.0951 3.27527 17.3183C3.27527 16.5431 3.90254 15.914 4.67777 15.9118L17.2963 15.8757C18.0846 15.8734 18.7249 16.5119 18.7249 17.3002C18.7249 18.087 18.0871 18.7248 17.3003 18.7248Z" stroke="white" stroke-width="1.40451"/>
</svg>
