<svg width="23" height="24" viewBox="0 0 23 24" fill="none" xmlns="http://www.w3.org/2000/svg">
<path d="M7.58928 10.9009H5.73331C4.92874 10.9009 4.24029 11.4785 4.10046 12.2708L3.02759 18.3504C2.84842 19.3657 3.62944 20.2966 4.66043 20.2966H18.9467C19.9776 20.2966 20.7587 19.3657 20.5795 18.3504L19.5066 12.2708C19.3668 11.4785 18.6783 10.9009 17.8738 10.9009H15.8796" stroke="white" stroke-width="1.38173"/>
<path d="M15.442 11.6933L14.9341 11.2248L14.9288 11.2307L15.442 11.6933ZM8.02672 11.6933L8.53996 11.2307L8.53457 11.2249L8.02672 11.6933ZM11.7344 15.8073L11.2211 16.2698L11.7344 16.8392L12.2476 16.2698L11.7344 15.8073ZM7.451 8.47518C7.451 6.2102 9.34902 4.33893 11.7344 4.33893V2.95721C8.62531 2.95721 6.06927 5.40828 6.06927 8.47518H7.451ZM11.7344 4.33893C14.1197 4.33893 16.0177 6.2102 16.0177 8.47518H17.3994C17.3994 5.40828 14.8434 2.95721 11.7344 2.95721V4.33893ZM16.0177 8.47518C16.0177 9.5287 15.6105 10.4915 14.9341 11.2249L15.9498 12.1616C16.8488 11.187 17.3994 9.89428 17.3994 8.47518H16.0177ZM8.53457 11.2249C7.8582 10.4915 7.451 9.5287 7.451 8.47518H6.06927C6.06927 9.89428 6.61995 11.187 7.51888 12.1616L8.53457 11.2249ZM14.9288 11.2307L11.2211 15.3448L12.2476 16.2698L15.9552 12.1558L14.9288 11.2307ZM12.2476 15.3448L8.53993 11.2307L7.51352 12.1558L11.2211 16.2698L12.2476 15.3448Z" fill="white"/>
<path d="M10.0764 15.8073L14.4979 15.8073V17.4653H10.0764V15.8073Z" fill="#031B66"/>
<path d="M10.4218 8.41359C10.4218 9.17669 11.0404 9.79532 11.8035 9.79532C12.5666 9.79532 13.1852 9.17669 13.1852 8.41359C13.1852 7.65048 12.5666 7.03186 11.8035 7.03186C11.0404 7.03186 10.4218 7.65048 10.4218 8.41359Z" fill="white"/>
</svg>
