<svg width="23" height="24" viewBox="0 0 23 24" fill="none" xmlns="http://www.w3.org/2000/svg">
<path d="M8.6786 14.1428H4.3929V15.5714H8.6786V14.1428Z" fill="white"/>
<path d="M15.8214 12.7142C15.0325 12.7142 14.3929 13.3538 14.3929 14.1428V15.5714C14.3929 16.3603 15.0325 16.9999 15.8214 16.9999H17.25C18.039 16.9999 18.6786 16.3603 18.6786 15.5714V14.1428C18.6786 13.3538 18.039 12.7142 17.25 12.7142H15.8214Z" fill="white"/>
<path fill-rule="evenodd" clip-rule="evenodd" d="M5.10718 4.14282C3.13474 4.14282 1.53577 5.7418 1.53577 7.71424V16.2856C1.53577 18.2581 3.13474 19.8571 5.10718 19.8571H17.9643C19.9367 19.8571 21.5357 18.2581 21.5357 16.2856V7.71424C21.5357 5.7418 19.9367 4.14282 17.9643 4.14282H5.10718ZM2.96433 7.71424C2.96433 6.53078 3.92372 5.57139 5.10718 5.57139H17.9643C19.1477 5.57139 20.1071 6.53078 20.1071 7.71424V8.42852H2.96433V7.71424ZM2.96433 9.85709H20.1071V16.2856C20.1071 17.4691 19.1477 18.4285 17.9643 18.4285H5.10718C3.92372 18.4285 2.96433 17.4691 2.96433 16.2856V9.85709Z" fill="white"/>
</svg>
