<svg width="24" height="24" viewBox="0 0 24 24" fill="none" xmlns="http://www.w3.org/2000/svg">
<path fill-rule="evenodd" clip-rule="evenodd" d="M15.7996 3.42859C13.8271 3.42859 12.2281 5.02757 12.2281 7.00001C12.2281 8.97245 13.8271 10.5714 15.7996 10.5714C17.772 10.5714 19.371 8.97245 19.371 7.00001C19.371 5.02757 17.772 3.42859 15.7996 3.42859ZM13.6567 7.00001C13.6567 5.81654 14.6161 4.85716 15.7996 4.85716C16.983 4.85716 17.9424 5.81654 17.9424 7.00001C17.9424 8.18347 16.983 9.14286 15.7996 9.14286C14.6161 9.14286 13.6567 8.18347 13.6567 7.00001Z" fill="white"/>
<path fill-rule="evenodd" clip-rule="evenodd" d="M5.08531 11.2857C5.08531 9.31327 6.68428 7.71429 8.65672 7.71429C10.6292 7.71429 12.2281 9.31327 12.2281 11.2857C12.2281 13.2581 10.6292 14.8571 8.65672 14.8571C6.68428 14.8571 5.08531 13.2581 5.08531 11.2857ZM8.65672 9.14286C7.47326 9.14286 6.51387 10.1022 6.51387 11.2857C6.51387 12.4692 7.47326 13.4286 8.65672 13.4286C9.84019 13.4286 10.7996 12.4692 10.7996 11.2857C10.7996 10.1022 9.84019 9.14286 8.65672 9.14286Z" fill="white"/>
<path d="M13.6567 13.4286H18.6567C19.0512 13.4286 19.371 13.7484 19.371 14.1428V16.2857H20.7995V14.1428C20.7995 12.9594 19.8402 12 18.6567 12H13.6567V13.4286Z" fill="white"/>
<path d="M5.79959 17.7143L11.5139 17.7143C11.9083 17.7143 12.2281 18.0341 12.2281 18.4285V20.5714H13.6567V18.4285C13.6567 17.2451 12.6973 16.2857 11.5139 16.2857L5.79959 16.2857C4.61612 16.2857 3.65674 17.2451 3.65674 18.4285V20.5714H5.08531V18.4285C5.08531 18.0341 5.4051 17.7143 5.79959 17.7143Z" fill="white"/>
</svg>
