<svg id="Layer_1" data-name="Layer 1" xmlns="http://www.w3.org/2000/svg" viewBox="0 0 240 220"><defs><style>.cls-1{fill:#fff;}</style></defs><path class="cls-1" d="M840,650V430h240V650Zm28-75.5c.58,0,1,.08,1.49.08,8.73,0,17.46,0,26.19-.05,2.71,0,5.44-.07,8.14-.31a29,29,0,0,0,15.45-5.8,24.7,24.7,0,0,0,7-8,23.12,23.12,0,0,0,2.81-10.91c0-4.15,0-8.29,0-12.44a27.76,27.76,0,0,0-1.39-8.33,12.88,12.88,0,0,0-.5-1.3,25,25,0,0,0-4.34-6.83,29.79,29.79,0,0,0-7.17-6.07,28.15,28.15,0,0,0-14.21-4c-10.87-.14-21.75-.09-32.62-.11a5.26,5.26,0,0,0-.85.14C868,531.88,867.82,553.14,868,574.5Zm129.73-21.09c.19.77.38,1.41.5,2.07a23,23,0,0,0,2.72,7.17,23.34,23.34,0,0,0,5.87,6.89,28.67,28.67,0,0,0,13.12,5.77,45.63,45.63,0,0,0,17-.27c5.3-1.09,10.08-3.16,13.9-7.13a16.45,16.45,0,0,0,4.41-8.43,19.61,19.61,0,0,0-1.06-11.47,18.47,18.47,0,0,0-3.35-5.19,21.64,21.64,0,0,0-7.94-5.34,45.06,45.06,0,0,0-11.44-2.75c-3-.4-6-.84-8.91-1.35a8.55,8.55,0,0,1-3.83-1.58,4.31,4.31,0,0,1-1.06-5.9,7.45,7.45,0,0,1,3.53-2.68,15.94,15.94,0,0,1,10.43-.1,9.35,9.35,0,0,1,5.59,4.72,1.53,1.53,0,0,0,1.59,1c4.83,0,9.66,0,14.5,0a9.61,9.61,0,0,0,1-.11,7,7,0,0,0,0-.93,26.14,26.14,0,0,0-1-4.49,19.77,19.77,0,0,0-6-8.69,26,26,0,0,0-11.89-5.65,42.07,42.07,0,0,0-15.58-.24c-5.85,1-11.11,3.21-15.26,7.62a16.72,16.72,0,0,0-4.2,7.49,17.48,17.48,0,0,0,.89,11.85,16.29,16.29,0,0,0,4.58,5.85,28,28,0,0,0,10.42,5.1,77.06,77.06,0,0,0,10.46,1.83,33.11,33.11,0,0,1,7.44,1.52,6.17,6.17,0,0,1,3.86,3.34,4.88,4.88,0,0,1-.1,4.43,6.26,6.26,0,0,1-3.79,3,18.38,18.38,0,0,1-12,0,10.73,10.73,0,0,1-7.22-6.79.8.8,0,0,0-.87-.62l-.75,0-14.28,0C998.58,553.33,998.23,553.38,997.76,553.41Zm-1.71-28.35a136.76,136.76,0,0,0,0-14.63c-21.93,0-43.88,0-65.84,0v14.6h11.89c2,0,4,0,6,0s3.91,0,5.95,0c.08,16.58,0,33,0,49.53h17.16V549.89c0-4.15,0-8.3,0-12.45s0-8.2,0-12.38Z" transform="translate(-840 -430)"/><path d="M868,574.5c-.21-21.36,0-42.62-.08-63.93a5.26,5.26,0,0,1,.85-.14c10.87,0,21.75,0,32.62.11a28.15,28.15,0,0,1,14.21,4,29.79,29.79,0,0,1,7.17,6.07,25,25,0,0,1,4.34,6.83,12.88,12.88,0,0,1,.5,1.3A27.76,27.76,0,0,1,929,537c0,4.15.06,8.29,0,12.44a23.12,23.12,0,0,1-2.81,10.91,24.7,24.7,0,0,1-7,8,29,29,0,0,1-15.45,5.8c-2.7.24-5.43.29-8.14.31-8.73,0-17.46,0-26.19.05C869.07,574.58,868.61,574.53,868,574.5ZM884.49,560c.36,0,.63.08.91.08h12.88a22.25,22.25,0,0,0,5.74-.72,10.63,10.63,0,0,0,6.17-4,11.57,11.57,0,0,0,2.17-6.84c0-3.51,0-7-.05-10.52a16.52,16.52,0,0,0-.91-5.47,10.19,10.19,0,0,0-4.84-5.64,15.92,15.92,0,0,0-7.65-1.79H885.59c-.34,0-.69,0-1.1.07Z" transform="translate(-840 -430)"/><path d="M997.76,553.41c.47,0,.82-.08,1.16-.08l14.28,0,.75,0a.8.8,0,0,1,.87.62,10.73,10.73,0,0,0,7.22,6.79,18.38,18.38,0,0,0,12,0,6.26,6.26,0,0,0,3.79-3,4.88,4.88,0,0,0,.1-4.43,6.17,6.17,0,0,0-3.86-3.34,33.11,33.11,0,0,0-7.44-1.52,77.06,77.06,0,0,1-10.46-1.83,28,28,0,0,1-10.42-5.1,16.29,16.29,0,0,1-4.58-5.85,17.48,17.48,0,0,1-.89-11.85,16.72,16.72,0,0,1,4.2-7.49c4.15-4.41,9.41-6.63,15.26-7.62a42.07,42.07,0,0,1,15.58.24,26,26,0,0,1,11.89,5.65,19.77,19.77,0,0,1,6,8.69,26.14,26.14,0,0,1,1,4.49,7,7,0,0,1,0,.93,9.61,9.61,0,0,1-1,.11c-4.84,0-9.67,0-14.5,0a1.53,1.53,0,0,1-1.59-1,9.35,9.35,0,0,0-5.59-4.72,15.94,15.94,0,0,0-10.43.1,7.45,7.45,0,0,0-3.53,2.68,4.31,4.31,0,0,0,1.06,5.9,8.55,8.55,0,0,0,3.83,1.58c3,.51,5.93,1,8.91,1.35a45.06,45.06,0,0,1,11.44,2.75,21.64,21.64,0,0,1,7.94,5.34,18.47,18.47,0,0,1,3.35,5.19,19.61,19.61,0,0,1,1.06,11.47,16.45,16.45,0,0,1-4.41,8.43c-3.82,4-8.6,6-13.9,7.13a45.63,45.63,0,0,1-17,.27,28.67,28.67,0,0,1-13.12-5.77,23.34,23.34,0,0,1-5.87-6.89,23,23,0,0,1-2.72-7.17C998.14,554.82,998,554.18,997.76,553.41Z" transform="translate(-840 -430)"/><path d="M996.05,525.06H971.29c-.08,4.18,0,8.28,0,12.38s0,8.3,0,12.45v24.73H954.07c-.08-16.51,0-33,0-49.53-2-.07-4,0-5.95,0s-4,0-6,0H930.18v-14.6c22-.06,43.91,0,65.84,0A136.76,136.76,0,0,1,996.05,525.06Z" transform="translate(-840 -430)"/><path class="cls-1" d="M884.49,560V525.17c.41,0,.76-.07,1.1-.07h13.32a15.92,15.92,0,0,1,7.65,1.79,10.19,10.19,0,0,1,4.84,5.64,16.52,16.52,0,0,1,.91,5.47c0,3.51.08,7,.05,10.52a11.57,11.57,0,0,1-2.17,6.84,10.63,10.63,0,0,1-6.17,4,22.25,22.25,0,0,1-5.74.72H885.4C885.12,560.08,884.85,560,884.49,560Z" transform="translate(-840 -430)"/></svg>